# xmcd CD database file
#
# Track frame offsets:
#	150
#	24955
#	40168
#
# Disc length: 778 seconds
#
# Revision: 0
# Processed by: cddbd v1.5.1PL0 Copyright (c) Steve Scherf et al.
# Submitted via: CDex 1.51
#
DISCID=17030803
DTITLE=B'z - OCEAN
DYEAR=2005
DGENRE=JPop
TTITLE0=01 OCEAN
TTITLE1=02 なりふりかまわず抱きしめて
TTITLE2=03　Dear my lovely pain
EXTD=YEAR: 2005
EXTT0=
EXTT1=
EXTT2=
PLAYORDER=
